<svg xmlns="http://www.w3.org/2000/svg" xmlns:xlink="http://www.w3.org/1999/xlink" width="132" zoomAndPan="magnify" viewBox="0 0 98.88 31.5" height="42" preserveAspectRatio="xMidYMid meet" version="1.0"><defs><g/><clipPath id="def9f0e4ac"><path d="M 0.714844 0 L 89.375 0 L 89.375 31.007812 L 0.714844 31.007812 Z M 0.714844 0 " clip-rule="nonzero"/></clipPath><clipPath id="cca87542d4"><path d="M 5.882812 0 L 84.140625 0 C 86.992188 0 89.308594 2.3125 89.308594 5.167969 L 89.308594 25.839844 C 89.308594 28.695312 86.992188 31.007812 84.140625 31.007812 L 5.882812 31.007812 C 3.027344 31.007812 0.714844 28.695312 0.714844 25.839844 L 0.714844 5.167969 C 0.714844 2.3125 3.027344 0 5.882812 0 Z M 5.882812 0 " clip-rule="nonzero"/></clipPath><clipPath id="50dcb909d9"><path d="M 0.714844 0 L 89.308594 0 L 89.308594 31.007812 L 0.714844 31.007812 Z M 0.714844 0 " clip-rule="nonzero"/></clipPath><clipPath id="dad778e21c"><path d="M 5.882812 0 L 84.140625 0 C 86.992188 0 89.308594 2.3125 89.308594 5.167969 L 89.308594 25.839844 C 89.308594 28.695312 86.992188 31.007812 84.140625 31.007812 L 5.882812 31.007812 C 3.027344 31.007812 0.714844 28.695312 0.714844 25.839844 L 0.714844 5.167969 C 0.714844 2.3125 3.027344 0 5.882812 0 Z M 5.882812 0 " clip-rule="nonzero"/></clipPath><clipPath id="a70531cb10"><rect x="0" width="90" y="0" height="32"/></clipPath><clipPath id="066825fea6"><path d="M 57.777344 0 L 98.046875 0 L 98.046875 27.90625 L 57.777344 27.90625 Z M 57.777344 0 " clip-rule="nonzero"/></clipPath><clipPath id="0c50521448"><path d="M 88.863281 27.90625 L 68.191406 27.90625 L 57.855469 -3.101562 L 99.199219 -3.101562 Z M 88.863281 27.90625 " clip-rule="nonzero"/></clipPath><clipPath id="a81e37ccf9"><path d="M 0.777344 0 L 41.046875 0 L 41.046875 27.90625 L 0.777344 27.90625 Z M 0.777344 0 " clip-rule="nonzero"/></clipPath><clipPath id="a177031af3"><path d="M 31.863281 27.90625 L 11.191406 27.90625 L 0.855469 -3.101562 L 42.199219 -3.101562 Z M 31.863281 27.90625 " clip-rule="nonzero"/></clipPath><clipPath id="75cdfa310b"><rect x="0" width="42" y="0" height="28"/></clipPath><clipPath id="dc1cd68eae"><path d="M 4 2 L 87 2 L 87 31.007812 L 4 31.007812 Z M 4 2 " clip-rule="nonzero"/></clipPath><clipPath id="13f4e899be"><rect x="0" width="83" y="0" height="30"/></clipPath><clipPath id="f74680ae30"><path d="M 4.902344 3.101562 L 25.601562 3.101562 L 25.601562 10.421875 L 4.902344 10.421875 Z M 4.902344 3.101562 " clip-rule="nonzero"/></clipPath><clipPath id="8e68111655"><path d="M 6.378906 3.101562 L 24.097656 3.101562 C 24.910156 3.101562 25.574219 3.761719 25.574219 4.578125 L 25.574219 8.945312 C 25.574219 9.757812 24.910156 10.421875 24.097656 10.421875 L 6.378906 10.421875 C 5.5625 10.421875 4.902344 9.757812 4.902344 8.945312 L 4.902344 4.578125 C 4.902344 3.761719 5.5625 3.101562 6.378906 3.101562 Z M 6.378906 3.101562 " clip-rule="nonzero"/></clipPath><clipPath id="2b72fa3f8d"><path d="M 0.902344 0.101562 L 21.601562 0.101562 L 21.601562 7.421875 L 0.902344 7.421875 Z M 0.902344 0.101562 " clip-rule="nonzero"/></clipPath><clipPath id="06fb12ff11"><path d="M 2.378906 0.101562 L 20.097656 0.101562 C 20.910156 0.101562 21.574219 0.761719 21.574219 1.578125 L 21.574219 5.945312 C 21.574219 6.757812 20.910156 7.421875 20.097656 7.421875 L 2.378906 7.421875 C 1.5625 7.421875 0.902344 6.757812 0.902344 5.945312 L 0.902344 1.578125 C 0.902344 0.761719 1.5625 0.101562 2.378906 0.101562 Z M 2.378906 0.101562 " clip-rule="nonzero"/></clipPath><clipPath id="6620155d75"><rect x="0" width="22" y="0" height="8"/></clipPath><clipPath id="c41416fe6f"><path d="M 2 1 L 32 1 L 32 16 L 2 16 Z M 2 1 " clip-rule="nonzero"/></clipPath><clipPath id="4e0b94e848"><path d="M 8.921875 -3.929688 L 31.480469 3.09375 L 25.335938 22.832031 L 2.777344 15.808594 Z M 8.921875 -3.929688 " clip-rule="nonzero"/></clipPath><clipPath id="e9c1aa748a"><path d="M 8.921875 -3.929688 L 31.480469 3.09375 L 25.335938 22.832031 L 2.777344 15.808594 Z M 8.921875 -3.929688 " clip-rule="nonzero"/></clipPath></defs><g clip-path="url(#def9f0e4ac)"><g clip-path="url(#cca87542d4)"><g transform="matrix(1, 0, 0, 1, 0.000000000000000111, -0.000000000000002895)"><g clip-path="url(#a70531cb10)"><g clip-path="url(#50dcb909d9)"><g clip-path="url(#dad778e21c)"><path fill="#9462ff" d="M 0.714844 0 L 89.253906 0 L 89.253906 31.007812 L 0.714844 31.007812 Z M 0.714844 0 " fill-opacity="1" fill-rule="nonzero"/></g></g></g></g></g></g><g clip-path="url(#066825fea6)"><g clip-path="url(#0c50521448)"><g transform="matrix(1, 0, 0, 1, 57, -0.000000000000002895)"><g clip-path="url(#75cdfa310b)"><g clip-path="url(#a81e37ccf9)"><g clip-path="url(#a177031af3)"><path fill="#9462ff" d="M 42.199219 27.90625 L 0.898438 27.90625 L 0.898438 -3.101562 L 42.199219 -3.101562 Z M 42.199219 27.90625 " fill-opacity="1" fill-rule="nonzero"/></g></g></g></g></g></g><g clip-path="url(#dc1cd68eae)"><g transform="matrix(1, 0, 0, 1, 4, 2)"><g clip-path="url(#13f4e899be)"><g fill="#ffffff" fill-opacity="1"><g transform="translate(0.901014, 24.771898)"><g><path d="M 17.296875 -20.859375 C 17.710938 -20.859375 18.039062 -20.707031 18.28125 -20.40625 C 18.519531 -20.113281 18.640625 -19.78125 18.640625 -19.40625 C 18.640625 -19.007812 18.484375 -18.640625 18.171875 -18.296875 C 17.859375 -17.953125 17.359375 -17.78125 16.671875 -17.78125 L 12.671875 -17.78125 L 6.9375 -1.375 C 6.769531 -0.914062 6.5 -0.570312 6.125 -0.34375 C 5.757812 -0.113281 5.363281 0 4.9375 0 C 4.476562 0 4.054688 -0.140625 3.671875 -0.421875 C 3.285156 -0.703125 3.09375 -1.09375 3.09375 -1.59375 C 3.09375 -1.695312 3.097656 -1.804688 3.109375 -1.921875 C 3.128906 -2.046875 3.164062 -2.164062 3.21875 -2.28125 L 8.609375 -17.78125 L 4.796875 -17.78125 C 4.347656 -17.78125 4 -17.929688 3.75 -18.234375 C 3.5 -18.535156 3.375 -18.867188 3.375 -19.234375 C 3.375 -19.628906 3.523438 -19.992188 3.828125 -20.328125 C 4.140625 -20.660156 4.648438 -20.835938 5.359375 -20.859375 Z M 17.296875 -20.859375 "/></g></g></g><g fill="#ffffff" fill-opacity="1"><g transform="translate(15.607884, 24.771898)"><g><path d="M 12.46875 -7.125 C 12.582031 -7.507812 12.78125 -7.78125 13.0625 -7.9375 C 13.34375 -8.09375 13.632812 -8.171875 13.9375 -8.171875 C 14.332031 -8.171875 14.695312 -8.054688 15.03125 -7.828125 C 15.375 -7.609375 15.546875 -7.3125 15.546875 -6.9375 C 15.546875 -6.820312 15.519531 -6.691406 15.46875 -6.546875 C 14.75 -4.460938 13.8125 -2.847656 12.65625 -1.703125 C 11.5 -0.566406 10.25 0 8.90625 0 C 8.226562 0 7.601562 -0.144531 7.03125 -0.4375 C 6.457031 -0.738281 6.003906 -1.15625 5.671875 -1.6875 C 5.335938 -2.21875 5.171875 -2.835938 5.171875 -3.546875 C 5.171875 -4.035156 5.265625 -4.554688 5.453125 -5.109375 L 6.546875 -8.109375 C 6.585938 -8.296875 6.609375 -8.445312 6.609375 -8.5625 C 6.609375 -8.84375 6.519531 -9.054688 6.34375 -9.203125 C 6.175781 -9.347656 5.96875 -9.460938 5.71875 -9.546875 C 5.476562 -9.640625 5.242188 -9.71875 5.015625 -9.78125 L 3.640625 -6.09375 C 3.492188 -5.707031 3.257812 -5.414062 2.9375 -5.21875 C 2.613281 -5.019531 2.28125 -4.921875 1.9375 -4.921875 C 1.59375 -4.921875 1.285156 -5.019531 1.015625 -5.21875 C 0.742188 -5.425781 0.609375 -5.738281 0.609375 -6.15625 C 0.609375 -6.3125 0.632812 -6.488281 0.6875 -6.6875 L 2.484375 -11.53125 C 2.078125 -12.039062 1.875 -12.625 1.875 -13.28125 C 1.875 -13.988281 2.078125 -14.613281 2.484375 -15.15625 C 2.890625 -15.695312 3.457031 -15.96875 4.1875 -15.96875 C 4.738281 -15.96875 5.226562 -15.757812 5.65625 -15.34375 C 6.082031 -14.9375 6.296875 -14.445312 6.296875 -13.875 C 6.296875 -13.644531 6.265625 -13.4375 6.203125 -13.25 C 6.546875 -13.15625 6.957031 -13.015625 7.4375 -12.828125 C 7.925781 -12.640625 8.40625 -12.394531 8.875 -12.09375 C 9.351562 -11.800781 9.75 -11.445312 10.0625 -11.03125 C 10.375 -10.613281 10.53125 -10.109375 10.53125 -9.515625 C 10.53125 -9.304688 10.507812 -9.085938 10.46875 -8.859375 C 10.425781 -8.640625 10.363281 -8.410156 10.28125 -8.171875 L 8.828125 -4.125 C 8.765625 -3.945312 8.734375 -3.769531 8.734375 -3.59375 C 8.734375 -3.425781 8.773438 -3.269531 8.859375 -3.125 C 8.953125 -2.988281 9.082031 -2.921875 9.25 -2.921875 C 9.769531 -2.921875 10.320312 -3.320312 10.90625 -4.125 C 11.488281 -4.9375 12.007812 -5.9375 12.46875 -7.125 Z M 12.46875 -7.125 "/></g></g></g><g fill="#ffffff" fill-opacity="1"><g transform="translate(27.24056, 24.771898)"><g><path d="M 12.4375 -6.9375 C 12.550781 -7.3125 12.769531 -7.59375 13.09375 -7.78125 C 13.414062 -7.96875 13.75 -8.0625 14.09375 -8.0625 C 14.46875 -8.0625 14.796875 -7.957031 15.078125 -7.75 C 15.367188 -7.550781 15.515625 -7.265625 15.515625 -6.890625 C 15.515625 -6.722656 15.484375 -6.550781 15.421875 -6.375 C 14.878906 -4.8125 14.125 -3.5625 13.15625 -2.625 C 12.1875 -1.695312 11.117188 -1.023438 9.953125 -0.609375 C 8.796875 -0.203125 7.644531 0 6.5 0 C 5.300781 0 4.21875 -0.191406 3.25 -0.578125 C 2.289062 -0.960938 1.53125 -1.507812 0.96875 -2.21875 C 0.414062 -2.9375 0.140625 -3.78125 0.140625 -4.75 C 0.140625 -5.03125 0.164062 -5.316406 0.21875 -5.609375 C 0.28125 -5.898438 0.363281 -6.195312 0.46875 -6.5 L 1.921875 -10.703125 C 2.347656 -11.929688 3.039062 -12.859375 4 -13.484375 C 4.96875 -14.117188 6.003906 -14.4375 7.109375 -14.4375 C 8.046875 -14.4375 8.859375 -14.253906 9.546875 -13.890625 C 10.234375 -13.535156 10.769531 -13.046875 11.15625 -12.421875 C 11.539062 -11.796875 11.734375 -11.09375 11.734375 -10.3125 C 11.734375 -9.894531 11.664062 -9.441406 11.53125 -8.953125 C 11.207031 -7.847656 10.59375 -6.96875 9.6875 -6.3125 C 8.789062 -5.664062 7.785156 -5.34375 6.671875 -5.34375 C 6.171875 -5.34375 5.703125 -5.410156 5.265625 -5.546875 C 4.835938 -5.679688 4.441406 -5.859375 4.078125 -6.078125 L 3.890625 -5.609375 C 3.835938 -5.492188 3.800781 -5.378906 3.78125 -5.265625 C 3.769531 -5.148438 3.765625 -5.035156 3.765625 -4.921875 C 3.765625 -4.359375 4.023438 -3.882812 4.546875 -3.5 C 5.078125 -3.113281 5.789062 -2.921875 6.6875 -2.921875 C 7.394531 -2.921875 8.117188 -3.054688 8.859375 -3.328125 C 9.609375 -3.597656 10.300781 -4.03125 10.9375 -4.625 C 11.582031 -5.21875 12.082031 -5.988281 12.4375 -6.9375 Z M 7.03125 -11.53125 C 6.75 -11.53125 6.46875 -11.421875 6.1875 -11.203125 C 5.914062 -10.992188 5.710938 -10.703125 5.578125 -10.328125 L 5.0625 -8.859375 C 5.40625 -8.660156 5.832031 -8.5625 6.34375 -8.5625 C 6.71875 -8.5625 7.066406 -8.640625 7.390625 -8.796875 C 7.722656 -8.960938 7.945312 -9.253906 8.0625 -9.671875 C 8.132812 -9.847656 8.171875 -10.039062 8.171875 -10.25 C 8.171875 -10.613281 8.066406 -10.914062 7.859375 -11.15625 C 7.648438 -11.40625 7.375 -11.53125 7.03125 -11.53125 Z M 7.03125 -11.53125 "/></g></g></g><g fill="#ffffff" fill-opacity="1"><g transform="translate(38.897839, 24.771898)"><g><path d="M 13.71875 -7.078125 C 13.851562 -7.492188 14.078125 -7.796875 14.390625 -7.984375 C 14.710938 -8.171875 15.039062 -8.265625 15.375 -8.265625 C 15.75 -8.265625 16.082031 -8.160156 16.375 -7.953125 C 16.675781 -7.753906 16.828125 -7.457031 16.828125 -7.0625 C 16.828125 -6.894531 16.785156 -6.707031 16.703125 -6.5 C 16.140625 -4.90625 15.476562 -3.628906 14.71875 -2.671875 C 13.96875 -1.722656 13.171875 -1.039062 12.328125 -0.625 C 11.484375 -0.207031 10.644531 0 9.8125 0 C 9.125 0 8.472656 -0.128906 7.859375 -0.390625 C 7.253906 -0.648438 6.769531 -1.039062 6.40625 -1.5625 C 6.039062 -2.082031 5.859375 -2.71875 5.859375 -3.46875 C 5.859375 -3.726562 5.882812 -3.992188 5.9375 -4.265625 C 6 -4.535156 6.078125 -4.8125 6.171875 -5.09375 L 7.96875 -10.15625 C 8.050781 -10.40625 8.09375 -10.609375 8.09375 -10.765625 C 8.09375 -10.992188 8.019531 -11.175781 7.875 -11.3125 C 7.738281 -11.457031 7.554688 -11.53125 7.328125 -11.53125 C 6.984375 -11.53125 6.609375 -11.382812 6.203125 -11.09375 C 5.804688 -10.800781 5.441406 -10.34375 5.109375 -9.71875 C 4.835938 -8.925781 4.53125 -8.050781 4.1875 -7.09375 C 3.851562 -6.132812 3.519531 -5.175781 3.1875 -4.21875 C 2.851562 -3.269531 2.535156 -2.394531 2.234375 -1.59375 C 2.054688 -1.039062 1.75 -0.628906 1.3125 -0.359375 C 0.875 -0.0859375 0.445312 0.046875 0.03125 0.046875 C -0.363281 0.046875 -0.710938 -0.0664062 -1.015625 -0.296875 C -1.316406 -0.523438 -1.46875 -0.867188 -1.46875 -1.328125 C -1.46875 -1.535156 -1.4375 -1.738281 -1.375 -1.9375 L 2.734375 -13.421875 C 2.859375 -13.765625 3.066406 -14.019531 3.359375 -14.1875 C 3.660156 -14.351562 3.984375 -14.4375 4.328125 -14.4375 C 4.660156 -14.4375 4.960938 -14.378906 5.234375 -14.265625 C 5.515625 -14.148438 5.6875 -13.976562 5.75 -13.75 C 6.375 -14.207031 7.160156 -14.4375 8.109375 -14.4375 C 8.765625 -14.4375 9.367188 -14.285156 9.921875 -13.984375 C 10.472656 -13.679688 10.914062 -13.269531 11.25 -12.75 C 11.582031 -12.238281 11.75 -11.65625 11.75 -11 C 11.75 -10.601562 11.660156 -10.148438 11.484375 -9.640625 L 9.5625 -4.1875 C 9.476562 -3.90625 9.4375 -3.695312 9.4375 -3.5625 C 9.4375 -3.132812 9.664062 -2.921875 10.125 -2.921875 C 10.707031 -2.921875 11.316406 -3.242188 11.953125 -3.890625 C 12.585938 -4.546875 13.175781 -5.609375 13.71875 -7.078125 Z M 13.71875 -7.078125 "/></g></g></g><g fill="#ffffff" fill-opacity="1"><g transform="translate(51.809395, 24.771898)"><g><path d="M 15.640625 -8.265625 C 16.015625 -8.265625 16.359375 -8.15625 16.671875 -7.9375 C 16.984375 -7.726562 17.140625 -7.4375 17.140625 -7.0625 C 17.140625 -6.988281 17.128906 -6.90625 17.109375 -6.8125 C 17.097656 -6.726562 17.078125 -6.644531 17.046875 -6.5625 C 16.503906 -4.957031 15.847656 -3.675781 15.078125 -2.71875 C 14.304688 -1.757812 13.5 -1.066406 12.65625 -0.640625 C 11.8125 -0.210938 10.976562 0 10.15625 0 C 9.550781 0 8.960938 -0.117188 8.390625 -0.359375 C 7.828125 -0.609375 7.359375 -0.941406 6.984375 -1.359375 C 6.492188 -0.878906 5.941406 -0.53125 5.328125 -0.3125 C 4.722656 -0.101562 4.132812 0 3.5625 0 C 2.863281 0 2.222656 -0.148438 1.640625 -0.453125 C 1.054688 -0.753906 0.585938 -1.179688 0.234375 -1.734375 C -0.117188 -2.285156 -0.296875 -2.921875 -0.296875 -3.640625 C -0.296875 -3.867188 -0.273438 -4.101562 -0.234375 -4.34375 C -0.191406 -4.582031 -0.128906 -4.816406 -0.046875 -5.046875 L 2.28125 -11.6875 C 2.613281 -12.613281 3.160156 -13.300781 3.921875 -13.75 C 4.679688 -14.207031 5.460938 -14.4375 6.265625 -14.4375 C 7.484375 -14.4375 8.476562 -14.007812 9.25 -13.15625 L 11.484375 -19.5 C 11.710938 -20.144531 11.992188 -20.613281 12.328125 -20.90625 C 12.671875 -21.195312 13.03125 -21.34375 13.40625 -21.34375 C 13.832031 -21.34375 14.222656 -21.203125 14.578125 -20.921875 C 14.941406 -20.648438 15.125 -20.25 15.125 -19.71875 C 15.125 -19.59375 15.097656 -19.4375 15.046875 -19.25 C 15.003906 -19.0625 14.957031 -18.890625 14.90625 -18.734375 L 9.890625 -4.25 C 9.804688 -4.007812 9.765625 -3.816406 9.765625 -3.671875 C 9.765625 -3.472656 9.828125 -3.296875 9.953125 -3.140625 C 10.085938 -2.992188 10.28125 -2.921875 10.53125 -2.921875 C 11.082031 -2.921875 11.671875 -3.253906 12.296875 -3.921875 C 12.921875 -4.585938 13.507812 -5.65625 14.0625 -7.125 C 14.175781 -7.519531 14.382812 -7.804688 14.6875 -7.984375 C 15 -8.171875 15.316406 -8.265625 15.640625 -8.265625 Z M 4.109375 -3.78125 C 4.273438 -3.75 4.476562 -3.769531 4.71875 -3.84375 C 4.96875 -3.914062 5.226562 -4.097656 5.5 -4.390625 C 5.78125 -4.679688 6.046875 -5.128906 6.296875 -5.734375 L 7.296875 -8.5625 C 7.410156 -8.875 7.488281 -9.144531 7.53125 -9.375 C 7.570312 -9.613281 7.59375 -9.828125 7.59375 -10.015625 C 7.59375 -10.441406 7.484375 -10.765625 7.265625 -10.984375 C 7.054688 -11.203125 6.835938 -11.3125 6.609375 -11.3125 C 6.421875 -11.3125 6.175781 -11.207031 5.875 -11 C 5.582031 -10.800781 5.3125 -10.335938 5.0625 -9.609375 L 3.671875 -5.515625 C 3.628906 -5.398438 3.59375 -5.269531 3.5625 -5.125 C 3.53125 -4.988281 3.515625 -4.835938 3.515625 -4.671875 C 3.515625 -4.472656 3.554688 -4.289062 3.640625 -4.125 C 3.722656 -3.96875 3.878906 -3.851562 4.109375 -3.78125 Z M 4.109375 -3.78125 "/></g></g></g><g fill="#ffffff" fill-opacity="1"><g transform="translate(65.016049, 24.771898)"><g><path d="M 13.0625 -6.953125 C 13.1875 -7.316406 13.382812 -7.578125 13.65625 -7.734375 C 13.925781 -7.890625 14.210938 -7.96875 14.515625 -7.96875 C 14.898438 -7.96875 15.257812 -7.851562 15.59375 -7.625 C 15.9375 -7.394531 16.109375 -7.097656 16.109375 -6.734375 C 16.109375 -6.691406 16.109375 -6.640625 16.109375 -6.578125 C 16.109375 -6.523438 16.09375 -6.472656 16.0625 -6.421875 C 15.488281 -4.765625 14.703125 -3.457031 13.703125 -2.5 C 12.703125 -1.539062 11.5625 -0.851562 10.28125 -0.4375 C 9 -0.03125 7.644531 0.171875 6.21875 0.171875 C 4.78125 0.171875 3.554688 -0.015625 2.546875 -0.390625 C 1.535156 -0.765625 0.765625 -1.273438 0.234375 -1.921875 C -0.285156 -2.578125 -0.546875 -3.304688 -0.546875 -4.109375 C -0.546875 -4.628906 -0.453125 -5.160156 -0.265625 -5.703125 C -0.0859375 -6.242188 0.179688 -6.722656 0.546875 -7.140625 C 0.921875 -7.554688 1.378906 -7.832031 1.921875 -7.96875 C 2.410156 -8.882812 2.910156 -9.8125 3.421875 -10.75 C 3.929688 -11.695312 4.421875 -12.640625 4.890625 -13.578125 C 5.117188 -14.046875 5.453125 -14.398438 5.890625 -14.640625 C 6.328125 -14.878906 6.773438 -15 7.234375 -15 C 7.859375 -15 8.351562 -14.789062 8.71875 -14.375 C 9.082031 -13.957031 9.265625 -13.488281 9.265625 -12.96875 C 9.265625 -12.601562 9.144531 -12.242188 8.90625 -11.890625 C 8.675781 -11.535156 8.390625 -11.285156 8.046875 -11.140625 C 8.085938 -10.765625 8.210938 -10.367188 8.421875 -9.953125 C 8.640625 -9.546875 8.875 -9.128906 9.125 -8.703125 C 9.46875 -8.128906 9.796875 -7.507812 10.109375 -6.84375 C 10.421875 -6.1875 10.578125 -5.492188 10.578125 -4.765625 C 10.578125 -4.609375 10.566406 -4.453125 10.546875 -4.296875 C 10.535156 -4.148438 10.515625 -4 10.484375 -3.84375 C 11.054688 -4.164062 11.550781 -4.582031 11.96875 -5.09375 C 12.394531 -5.613281 12.757812 -6.234375 13.0625 -6.953125 Z M 5.265625 -7.625 C 5.472656 -7.40625 5.625 -7.160156 5.71875 -6.890625 C 5.820312 -6.628906 5.875 -6.359375 5.875 -6.078125 C 5.875 -5.472656 5.675781 -4.921875 5.28125 -4.421875 C 4.894531 -3.921875 4.335938 -3.671875 3.609375 -3.671875 C 3.535156 -3.671875 3.445312 -3.671875 3.34375 -3.671875 C 3.25 -3.679688 3.148438 -3.695312 3.046875 -3.71875 C 3.179688 -3.40625 3.421875 -3.15625 3.765625 -2.96875 C 4.109375 -2.789062 4.484375 -2.703125 4.890625 -2.703125 C 5.546875 -2.734375 6.03125 -2.957031 6.34375 -3.375 C 6.65625 -3.800781 6.8125 -4.300781 6.8125 -4.875 C 6.8125 -5.445312 6.679688 -6.015625 6.421875 -6.578125 C 6.171875 -7.140625 5.859375 -7.644531 5.484375 -8.09375 Z M 5.265625 -7.625 "/></g></g></g></g></g></g><g clip-path="url(#f74680ae30)"><g clip-path="url(#8e68111655)"><g transform="matrix(1, 0, 0, 1, 4, 3)"><g clip-path="url(#6620155d75)"><g clip-path="url(#2b72fa3f8d)"><g clip-path="url(#06fb12ff11)"><path fill="#9462ff" d="M 0.902344 0.101562 L 21.574219 0.101562 L 21.574219 7.421875 L 0.902344 7.421875 Z M 0.902344 0.101562 " fill-opacity="1" fill-rule="nonzero"/></g></g></g></g></g></g><g clip-path="url(#c41416fe6f)"><g clip-path="url(#4e0b94e848)"><g clip-path="url(#e9c1aa748a)"><path fill="#ffffff" d="M 2.878906 15.488281 L 15.101562 5.53125 C 15.503906 5.207031 16.105469 5.382812 16.265625 5.875 L 16.933594 7.929688 C 17.078125 8.375 17.59375 8.574219 18 8.34375 L 22.496094 5.792969 C 22.835938 5.597656 22.964844 5.175781 22.796875 4.828125 L 21.644531 2.460938 C 21.378906 1.917969 21.84375 1.304688 22.4375 1.414062 L 30.644531 2.910156 C 31.113281 2.996094 31.378906 3.496094 31.1875 3.933594 L 27.78125 11.632812 C 27.53125 12.199219 26.738281 12.222656 26.453125 11.679688 L 25.472656 9.808594 C 25.28125 9.449219 24.835938 9.3125 24.476562 9.5 L 16.125 13.886719 C 15.726562 14.09375 15.234375 13.898438 15.085938 13.472656 L 14.355469 11.347656 C 14.214844 10.941406 13.757812 10.742188 13.363281 10.914062 Z M 2.878906 15.488281 " fill-opacity="1" fill-rule="nonzero"/></g></g></g></svg>