<svg xmlns="http://www.w3.org/2000/svg" xmlns:xlink="http://www.w3.org/1999/xlink" width="500" zoomAndPan="magnify" viewBox="0 0 375 374.999991" height="500" preserveAspectRatio="xMidYMid meet" version="1.0"><defs><g/><clipPath id="0a68e1f4aa"><rect x="0" width="268" y="0" height="314"/></clipPath><clipPath id="d5a63d4bad"><rect x="0" width="230" y="0" height="230"/></clipPath></defs><rect x="-37.5" width="450" fill="#ffffff" y="-37.499999" height="449.999989" fill-opacity="1"/><rect x="-37.5" width="450" fill="#000000" y="-37.499999" height="449.999989" fill-opacity="1"/><g transform="matrix(1, 0, 0, 1, 54, 58)"><g clip-path="url(#0a68e1f4aa)"><g fill="#ffffff" fill-opacity="1"><g transform="translate(1.053636, 243.197936)"><g><path d="M 249.15625 -240.046875 L 249.15625 -142.78125 L 130.546875 -240.046875 Z M 97.59375 -238.796875 L 99.78125 -238.796875 L 229.078125 -133.046875 C 233.046875 -129.492188 236.703125 -125.988281 240.046875 -122.53125 C 243.398438 -119.082031 247.484375 -114.113281 252.296875 -107.625 C 259.410156 -97.800781 262.96875 -86.085938 262.96875 -72.484375 C 262.96875 -60.554688 260.035156 -49.050781 254.171875 -37.96875 C 248.316406 -26.882812 239.164062 -17.785156 226.71875 -10.671875 C 214.269531 -3.554688 198.84375 0 180.4375 0 L 64.328125 -87.859375 C 48.015625 -100.203125 36.035156 -112.804688 28.390625 -125.671875 C 20.753906 -138.535156 16.9375 -152.289062 16.9375 -166.9375 C 16.9375 -181.375 20.492188 -194.03125 27.609375 -204.90625 C 34.722656 -215.789062 44.398438 -224.160156 56.640625 -230.015625 C 68.878906 -235.867188 82.53125 -238.796875 97.59375 -238.796875 Z M 18.203125 -100.421875 L 146.234375 0 L 18.203125 0 Z M 18.203125 -100.421875 "/></g></g></g></g></g><g transform="matrix(1, 0, 0, 1, 89, 56)"><g clip-path="url(#d5a63d4bad)"><g fill="#000000" fill-opacity="1"><g transform="translate(205.07113, 134.50922)"><g><path d="M -56.296875 -49.890625 L -48.4375 -43.078125 C -40.582031 -36.265625 -34.882812 -27.707031 -31.34375 -17.40625 C -27.8125 -7.101562 -27.035156 3.566406 -29.015625 14.609375 C -30.992188 25.648438 -35.851562 35.628906 -43.59375 44.546875 C -52.457031 54.785156 -62.425781 61.375 -73.5 64.3125 C -84.570312 67.25 -95.414062 67.234375 -106.03125 64.265625 C -116.644531 61.296875 -125.925781 56.367188 -133.875 49.484375 L -138.78125 45.21875 Z M -159.34375 -56.03125 C -150.476562 -66.257812 -140.503906 -72.84375 -129.421875 -75.78125 C -118.347656 -78.71875 -107.503906 -78.703125 -96.890625 -75.734375 C -86.273438 -72.765625 -77 -67.835938 -69.0625 -60.953125 L -64.140625 -56.6875 L -146.625 38.421875 L -154.5 31.59375 C -162.34375 24.78125 -168.03125 16.222656 -171.5625 5.921875 C -175.101562 -4.378906 -175.882812 -15.050781 -173.90625 -26.09375 C -171.925781 -37.132812 -167.070312 -47.113281 -159.34375 -56.03125 Z M -159.34375 -56.03125 "/></g></g></g></g></g></svg>