<svg xmlns="http://www.w3.org/2000/svg" xmlns:xlink="http://www.w3.org/1999/xlink" width="500" zoomAndPan="magnify" viewBox="0 0 375 374.999991" height="500" preserveAspectRatio="xMidYMid meet" version="1.0"><defs><g/><clipPath id="469ea2863f"><rect x="0" width="299" y="0" height="333"/></clipPath></defs><rect x="-37.5" width="450" fill="#ffffff" y="-37.499999" height="449.999989" fill-opacity="1"/><rect x="-37.5" width="450" fill="#000000" y="-37.499999" height="449.999989" fill-opacity="1"/><g transform="matrix(1, 0, 0, 1, 33, 42)"><g clip-path="url(#469ea2863f)"><g fill="#ffffff" fill-opacity="1"><g transform="translate(0.377483, 272.168715)"><g><path d="M 279.4375 -269.234375 L 279.4375 -160.125 L 146.40625 -269.234375 Z M 109.453125 -267.828125 L 111.921875 -267.828125 L 256.921875 -149.21875 C 261.367188 -145.226562 265.46875 -141.296875 269.21875 -137.421875 C 272.976562 -133.554688 277.554688 -127.988281 282.953125 -120.71875 C 290.929688 -109.6875 294.921875 -96.546875 294.921875 -81.296875 C 294.921875 -67.921875 291.632812 -55.015625 285.0625 -42.578125 C 278.5 -30.148438 268.234375 -19.945312 254.265625 -11.96875 C 240.304688 -3.988281 223.003906 0 202.359375 0 L 72.140625 -98.546875 C 53.847656 -112.390625 40.414062 -126.523438 31.84375 -140.953125 C 23.28125 -155.378906 19 -170.804688 19 -187.234375 C 19 -203.421875 22.988281 -217.613281 30.96875 -229.8125 C 38.945312 -242.007812 49.796875 -251.394531 63.515625 -257.96875 C 77.242188 -264.539062 92.554688 -267.828125 109.453125 -267.828125 Z M 20.40625 -112.625 L 164 0 L 20.40625 0 Z M 20.40625 -112.625 "/></g></g></g></g></g></svg>